# xmcd
#
# Track frame offsets:
#	150
#	15729
#	48025
#	74849
#
# Disc length: 1660 seconds
#
# Revision: 1
# Processed by: cddbd v1.5.2PL0 Copyright (c) Steve Scherf et al.
# Submitted via: audiograbber 1.83.01
#
DISCID=30067a04
DTITLE=Shanadoo - My Samurai
DYEAR=2006
DGENRE=Dance
TTITLE0=My Samurai (Radio Version)
TTITLE1=My Samurai (Extrend Version)
TTITLE2=My Samurai (Karaoke Version)
TTITLE3=Daten-CD
EXTD=
EXTT0=
EXTT1=
EXTT2=
EXTT3=
PLAYORDER=
